<?xml version="1.0" encoding="UTF-8" standalone="no"?>
<!DOCTYPE svg PUBLIC "-//W3C//DTD SVG 1.1//EN" "http://www.w3.org/Graphics/SVG/1.1/DTD/svg11.dtd">
<svg width="103" height="90" viewBox="0 0 1030 900" version="1.1" xmlns="http://www.w3.org/2000/svg" xmlns:xlink="http://www.w3.org/1999/xlink" xml:space="preserve" xmlns:serif="http://www.serif.com/" style="fill-rule:evenodd;clip-rule:evenodd;stroke-linejoin:round;stroke-miterlimit:1.41421;">
    <g transform="matrix(1,0,0,1,-115,-77)">
        <g transform="matrix(1,0,0,1,-15,-3)">
            <g id="triangle">
                <path d="M632.149,102.458C634.787,97.849 639.69,95.005 645,95.005C650.31,95.005 655.213,97.849 657.851,102.458C729.256,227.243 1076.53,834.121 1147.37,957.923C1149.98,962.488 1149.96,968.099 1147.32,972.649C1144.69,977.199 1139.82,980 1134.56,980C992.45,980 298.012,980 155.565,980C150.279,980 145.392,977.185 142.74,972.612C140.088,968.039 140.072,962.399 142.697,957.811C213.684,833.756 560.766,227.205 632.149,102.458Z"/>
            </g>
        </g>
        <g>
            <g id="eye">
                <path d="M379.052,689.302C374.467,683.753 374.544,675.709 379.234,670.249C538.676,485.407 727.062,492.108 879.953,670.345C884.587,675.77 884.676,683.734 880.164,689.261C735.431,865.616 528.683,869.43 379.052,689.302Z" style="fill:white;"/>
            </g>
            <g transform="matrix(1,0,0,1,-0.31266,-1.29968)">
                <g transform="matrix(1,0,0,1,-26,4)">
                    <g id="iris">
                        <circle cx="655.848" cy="675.848" r="105.848"/>
                    </g>
                </g>
                <g transform="matrix(1,0,0,1,-16.1518,9.8482)">
                    <g id="pupil">
                        <circle cx="646" cy="670" r="50" style="fill:rgb(235,235,235);"/>
                    </g>
                </g>
            </g>
        </g>
    </g>
</svg>
